<?xml version="1.0" standalone="no"?>
<!DOCTYPE svg PUBLIC "-//W3C//DTD SVG 20010904//EN"
 "http://www.w3.org/TR/2001/REC-SVG-20010904/DTD/svg10.dtd">
<svg version="1.0" xmlns="http://www.w3.org/2000/svg"
 width="1854.000000pt" height="455.000000pt" viewBox="0 0 1854.000000 455.000000"
 preserveAspectRatio="xMidYMid meet">

<g transform="translate(0.000000,455.000000) scale(0.100000,-0.100000)"
fill="#000000" stroke="none">
<path d="M851 4173 c-23 -24 -33 -54 -64 -198 -21 -93 -39 -170 -40 -171 -1 0
-51 -17 -112 -37 -60 -20 -127 -43 -147 -52 l-38 -15 0 -215 c0 -215 0 -215
23 -219 12 -3 96 -7 187 -10 460 -15 806 -109 1143 -309 42 -25 77 -43 77 -39
-1 28 -36 147 -61 208 -31 73 -32 75 -123 135 -227 151 -502 254 -735 275
-134 13 -94 38 90 56 191 18 419 -11 597 -78 321 -121 601 -374 757 -683 48
-97 101 -256 120 -365 30 -175 17 -445 -32 -618 -18 -66 -15 -65 -124 -42 -95
21 -164 13 -239 -25 -49 -25 -55 -32 -53 -57 19 -237 13 -297 -41 -386 -44
-73 -99 -109 -178 -117 l-63 -6 -6 -57 c-18 -167 -163 -303 -391 -369 -132
-38 -335 -37 -433 1 -17 7 -70 11 -120 11 -103 -2 -204 20 -314 69 -38 16 -72
30 -76 30 -3 0 -5 -35 -3 -77 l3 -78 65 -32 c36 -18 102 -42 146 -55 l82 -23
38 -169 c27 -121 45 -177 60 -195 l22 -26 283 -3 c298 -3 329 1 351 42 7 11
28 97 47 189 l36 169 100 34 c55 19 105 32 110 30 6 -2 70 -56 143 -120 100
-88 139 -116 160 -116 19 0 87 44 237 155 116 85 218 165 228 176 9 12 17 32
17 44 0 13 -31 92 -70 176 -38 84 -70 158 -70 165 0 7 23 44 51 81 28 37 54
75 59 83 7 12 31 12 190 -3 197 -18 209 -16 234 31 8 15 49 137 91 272 61 191
75 250 69 269 -7 19 -50 49 -168 116 l-159 90 -2 113 -2 112 155 93 c85 50
161 101 168 112 12 18 2 53 -79 295 -80 240 -95 277 -117 287 -21 10 -58 8
-190 -7 -91 -11 -172 -20 -180 -20 -24 0 -143 166 -135 190 3 11 35 85 71 166
35 81 64 156 64 168 0 13 -10 32 -22 43 -52 46 -435 312 -459 318 -30 7 -36 3
-207 -154 l-103 -94 -102 32 c-56 18 -103 34 -106 36 -2 3 -21 82 -43 177 -32
145 -43 177 -64 196 -25 22 -29 22 -300 22 l-276 0 -27 -27z"/>
<path d="M449 3184 c-2 -22 2 -48 6 -53 2 -1 61 -9 132 -17 220 -24 384 -56
570 -110 18 -5 24 0 36 29 8 19 20 38 26 41 25 16 5 26 -116 55 -157 37 -311
58 -505 67 -141 7 -148 6 -149 -12z"/>
<path d="M1913 3047 c18 -51 21 -88 22 -210 l0 -147 50 -16 c69 -23 182 -81
226 -115 20 -16 44 -44 53 -63 20 -42 21 -116 1 -142 -33 -43 -9 -46 39 -4
112 98 109 308 -7 481 -72 107 -215 210 -363 263 l-41 14 20 -61z"/>
<path d="M447 3051 c-9 -34 4 -71 27 -76 11 -2 75 -14 141 -25 107 -19 417
-89 455 -104 12 -5 15 5 16 54 l0 59 -105 25 c-128 30 -183 40 -370 66 -174
24 -158 24 -164 1z"/>
<path d="M1345 3056 c-112 -49 -115 -185 -7 -237 42 -21 45 -21 87 -4 79 30
113 109 77 175 -33 59 -104 90 -157 66z m130 -86 c0 -29 -4 -36 -23 -38 -43
-6 -69 37 -40 66 7 7 24 12 38 10 21 -3 25 -8 25 -38z"/>
<path d="M1600 2937 c0 -90 -72 -177 -161 -196 -78 -17 -168 7 -210 55 -26 30
-49 81 -49 109 0 16 -6 25 -15 25 -16 0 -19 -15 -15 -70 6 -90 106 -218 160
-205 14 3 84 8 156 12 136 6 260 -6 334 -32 l40 -14 15 52 c8 29 18 76 22 105
l6 52 -89 41 c-49 23 -113 52 -141 65 l-53 23 0 -22z"/>
<path d="M447 2879 c-7 -28 2 -76 17 -88 16 -13 406 -128 511 -150 126 -27
201 -35 209 -22 4 5 -8 30 -26 54 -18 24 -40 58 -49 75 -16 28 -26 32 -145 60
-137 33 -455 92 -490 92 -14 0 -24 -8 -27 -21z"/>
<path d="M6887 2705 c-28 -35 -28 -35 -5 -35 25 1 63 44 53 60 -10 16 -19 12
-48 -25z"/>
<path d="M449 2684 c-11 -30 -7 -153 7 -188 7 -17 15 -18 108 -12 56 3 176 9
269 13 166 6 168 6 208 36 l42 31 -109 18 c-92 15 -441 102 -496 123 -13 5
-21 0 -29 -21z"/>
<path d="M16135 2688 c-14 -21 -14 -23 1 -26 20 -5 49 22 40 37 -11 17 -23 13
-41 -11z"/>
<path d="M10855 2631 c-52 -13 -111 -48 -143 -86 -133 -151 -133 -404 0 -550
84 -92 193 -118 289 -70 64 33 69 41 69 121 l0 74 -45 -32 c-35 -25 -58 -33
-103 -36 -73 -5 -112 13 -149 69 -22 34 -27 55 -31 122 -5 107 9 158 59 208
36 36 43 39 96 39 61 0 128 -31 158 -73 15 -21 15 -16 13 68 l-3 90 -50 26
c-56 30 -115 41 -160 30z"/>
<path d="M11637 2626 c-90 -25 -173 -114 -207 -222 -74 -240 67 -504 269 -504
52 0 130 40 175 90 107 119 130 308 57 465 -38 81 -72 119 -134 149 -69 33
-103 37 -160 22z m96 -150 c71 -29 107 -101 107 -217 0 -170 -134 -267 -236
-168 -100 97 -79 324 36 381 42 22 51 22 93 4z"/>
<path d="M1894 2571 c-16 -58 -17 -59 -58 -63 -22 -3 -59 -13 -81 -22 -47 -20
-37 -32 38 -42 30 -4 47 -12 47 -20 0 -8 -7 -14 -15 -14 -8 0 -15 -6 -15 -12
-1 -33 -16 -39 -63 -27 -45 11 -62 32 -34 42 6 2 0 8 -16 12 -36 10 -70 -13
-108 -73 -32 -51 -59 -129 -59 -172 0 -86 63 -191 139 -230 50 -25 70 -26 114
-7 31 13 37 21 37 45 0 17 6 32 15 36 10 3 15 19 15 44 l0 39 52 9 c41 7 55
15 67 36 14 24 13 33 -15 115 -17 48 -39 110 -50 136 -22 55 -14 67 44 67 26
0 36 7 52 33 16 26 28 87 18 87 -2 0 -27 9 -55 20 l-53 20 -16 -59z"/>
<path d="M17473 2621 c-119 -30 -206 -138 -234 -293 -31 -168 61 -366 196
-422 59 -25 133 -20 196 12 l54 27 3 79 3 79 -28 -18 c-57 -38 -79 -45 -140
-45 -60 0 -65 2 -102 39 -47 47 -66 113 -59 211 6 80 42 151 88 175 33 17 106
20 143 6 14 -5 41 -24 61 -41 l36 -32 0 85 0 86 -52 25 c-60 29 -119 38 -165
27z"/>
<path d="M17995 2621 c-164 -42 -271 -236 -237 -432 39 -227 211 -353 377
-275 62 28 109 80 149 166 29 61 31 72 31 175 0 91 -4 120 -23 167 -54 133
-192 226 -297 199z m117 -172 c36 -26 69 -98 75 -167 12 -132 -57 -242 -152
-242 -86 0 -150 92 -149 215 0 169 118 270 226 194z"/>
<path d="M1320 2594 c-79 -17 -166 -48 -205 -74 l-30 -20 75 0 c162 0 274 -37
302 -100 16 -37 24 -38 42 -2 33 64 135 138 225 162 23 6 41 13 38 16 -2 2
-39 11 -81 19 -96 18 -279 18 -366 -1z"/>
<path d="M9530 2265 l0 -345 55 0 55 0 0 185 c0 146 3 185 13 185 7 0 85 -83
173 -185 87 -102 165 -185 172 -185 9 0 12 76 12 345 l0 345 -60 0 -60 0 0
-185 c0 -142 -3 -185 -12 -184 -7 0 -84 83 -171 185 -88 101 -163 184 -168
184 -5 0 -9 -145 -9 -345z"/>
<path d="M10331 2588 c-5 -13 -64 -160 -131 -328 -68 -168 -125 -313 -128
-323 -4 -16 2 -18 54 -15 l59 3 16 45 17 45 125 3 125 3 17 -51 17 -50 59 0
c32 0 59 3 59 7 0 18 -265 683 -272 683 -5 0 -12 -10 -17 -22z m52 -343 l36
-105 -75 0 c-41 0 -74 3 -74 7 0 18 65 203 71 203 4 0 23 -47 42 -105z"/>
<path d="M11190 2265 l0 -345 65 0 65 0 0 345 0 345 -65 0 -65 0 0 -345z"/>
<path d="M12042 2268 l3 -343 58 -3 57 -3 0 186 c0 156 2 186 14 183 8 -2 85
-84 170 -183 86 -99 162 -180 169 -180 9 0 13 80 15 343 l2 342 -60 0 -60 0 0
-185 c0 -141 -3 -185 -12 -185 -7 0 -84 83 -172 185 -87 102 -165 185 -172
185 -12 0 -14 -57 -12 -342z"/>
<path d="M12845 2578 c-7 -18 -69 -174 -138 -346 l-125 -313 60 3 60 3 17 45
17 45 125 3 125 3 15 -48 15 -48 63 -3 c58 -3 63 -1 57 15 -66 179 -263 673
-269 673 -4 0 -14 -15 -22 -32z m55 -334 c18 -52 30 -97 27 -100 -2 -3 -36 -4
-75 -2 l-70 3 35 98 c20 53 39 97 43 97 5 0 23 -43 40 -96z"/>
<path d="M13200 2265 l0 -345 175 0 175 0 0 70 0 70 -110 0 -110 0 0 275 0
275 -65 0 -65 0 0 -345z"/>
<path d="M13970 2264 l0 -346 118 4 c99 3 126 8 173 30 71 32 124 86 158 157
23 49 26 69 26 161 0 94 -3 111 -28 161 -35 72 -98 131 -171 158 -45 17 -79
21 -166 21 l-110 0 0 -346z m237 195 c70 -26 112 -100 113 -195 0 -116 -69
-193 -172 -194 l-48 0 0 200 0 200 39 0 c22 0 52 -5 68 -11z"/>
<path d="M14540 2265 l0 -345 170 0 170 0 0 70 0 70 -110 0 -110 0 0 75 0 75
70 0 70 0 0 65 0 65 -70 0 -70 0 0 70 0 70 110 0 110 0 0 65 0 65 -170 0 -170
0 0 -345z"/>
<path d="M4775 2576 c-169 -78 -238 -352 -138 -549 77 -154 219 -208 346 -134
l47 28 0 81 0 81 -22 -20 c-62 -56 -171 -72 -222 -32 -86 67 -102 271 -30 367
62 80 158 80 242 0 l32 -32 0 85 c0 84 0 84 -33 106 -73 50 -144 56 -222 19z"/>
<path d="M5852 2579 c-58 -29 -126 -108 -153 -177 -33 -85 -38 -220 -11 -309
68 -223 263 -302 405 -165 181 174 141 551 -68 648 -62 29 -117 30 -173 3z
m146 -149 c102 -62 112 -305 16 -390 -132 -115 -279 114 -198 308 38 92 111
125 182 82z"/>
<path d="M6813 2579 c-238 -117 -250 -557 -19 -690 123 -70 262 -8 333 148 91
199 21 463 -142 539 -62 29 -117 30 -172 3z m144 -149 c48 -29 75 -91 81 -183
9 -154 -68 -259 -172 -233 -70 18 -123 131 -113 243 14 148 111 230 204 173z"/>
<path d="M7440 2585 c-124 -56 -200 -190 -200 -354 0 -143 57 -270 147 -330
80 -53 171 -55 270 -5 l58 29 3 168 2 167 -110 0 -110 0 0 -65 0 -65 50 0 50
0 0 -59 c0 -66 -5 -71 -71 -71 -104 0 -169 88 -169 229 0 90 15 136 59 184 32
34 45 40 89 45 66 6 94 -2 136 -38 40 -36 46 -29 46 60 l0 59 -47 28 c-58 34
-149 42 -203 18z"/>
<path d="M8233 2575 c-202 -102 -245 -449 -79 -633 79 -88 191 -106 289 -49
l47 28 0 80 0 80 -40 -33 c-35 -27 -51 -33 -105 -36 -76 -5 -112 15 -147 81
-32 61 -32 213 -1 274 56 106 155 122 247 42 l46 -41 0 86 0 85 -47 28 c-68
40 -142 43 -210 8z"/>
<path d="M8725 2576 c-190 -88 -245 -420 -101 -609 53 -69 106 -100 179 -105
56 -3 67 0 116 30 109 66 167 199 159 361 -7 126 -34 195 -107 267 -83 83
-155 99 -246 56z m172 -170 c68 -74 80 -218 27 -315 -33 -61 -72 -85 -128 -78
-49 7 -96 54 -114 115 -21 68 -15 170 13 229 46 99 136 121 202 49z"/>
<path d="M15350 2594 c0 -3 -25 -153 -55 -334 -30 -181 -55 -334 -55 -339 0
-7 23 -11 54 -11 l53 0 7 48 c23 175 40 262 50 262 7 0 43 -69 82 -152 40 -87
76 -153 83 -153 8 0 42 64 80 152 36 84 71 153 77 153 6 0 14 -21 18 -47 3
-27 13 -96 22 -155 l17 -108 59 0 c52 0 59 2 55 18 -3 9 -29 164 -58 345 -29
180 -56 327 -60 327 -4 0 -49 -95 -100 -210 -64 -144 -98 -210 -108 -208 -7 2
-57 96 -110 210 -82 177 -111 230 -111 202z"/>
<path d="M15970 2255 l0 -345 175 0 176 0 -3 68 -3 67 -112 3 -113 3 0 74 0
75 70 0 70 0 0 65 0 65 -70 0 -70 0 0 70 0 70 110 0 110 0 0 65 0 65 -170 0
-170 0 0 -345z"/>
<path d="M16500 2440 c44 -88 80 -165 80 -171 0 -7 -43 -87 -95 -180 -52 -92
-95 -170 -95 -173 0 -3 28 -6 63 -6 l62 1 61 112 c33 61 67 113 75 115 9 1 38
-40 79 -113 l65 -115 73 0 c86 0 91 -25 -44 202 -52 86 -94 163 -94 171 0 13
29 67 142 265 l29 52 -64 0 -63 0 -53 -95 c-29 -52 -58 -95 -65 -95 -6 0 -36
43 -66 95 l-55 95 -58 0 -57 0 80 -160z"/>
<path d="M17030 2255 l0 -345 65 0 65 0 0 345 0 345 -65 0 -65 0 0 -345z"/>
<path d="M3630 2510 l0 -70 85 0 85 0 0 -280 0 -280 60 0 60 0 0 280 0 280 85
0 85 0 0 70 0 70 -230 0 -230 0 0 -70z"/>
<path d="M4189 2576 c-2 -2 -3 -160 -1 -350 l3 -346 159 0 160 0 0 70 0 70
-105 0 -105 0 0 75 0 75 60 0 60 0 0 65 0 65 -60 0 -60 0 0 70 0 70 105 0 105
0 0 70 0 70 -158 0 c-87 0 -161 -2 -163 -4z"/>
<path d="M5130 2230 l0 -350 55 0 55 0 0 185 c0 142 3 185 13 185 6 -1 80 -84
162 -185 83 -102 156 -185 163 -185 9 0 12 77 12 350 l0 350 -55 0 -55 0 0
-190 c0 -148 -3 -190 -13 -190 -7 0 -82 85 -167 190 -85 104 -158 190 -162
190 -5 0 -8 -157 -8 -350z"/>
<path d="M6290 2230 l0 -350 165 0 165 0 0 70 0 70 -105 0 -105 0 0 280 0 280
-60 0 -60 0 0 -350z"/>
<path d="M7840 2230 l0 -350 60 0 60 0 0 350 0 350 -60 0 -60 0 0 -350z"/>
<path d="M670 2438 c-69 -5 -145 -12 -170 -16 -41 -7 -46 -10 -54 -44 -6 -26
-6 -46 2 -63 11 -25 12 -25 139 -25 181 0 479 -29 588 -56 26 -6 26 -5 15 16
-19 36 -8 135 18 163 l23 24 -98 6 c-124 9 -302 7 -463 -5z"/>
<path d="M1269 2381 c-51 -51 -32 -125 38 -152 51 -19 113 33 113 97 0 37 -51
84 -90 84 -22 0 -41 -9 -61 -29z m95 -27 c24 -24 20 -61 -9 -80 -23 -15 -27
-15 -50 0 -17 11 -25 26 -25 46 0 45 52 66 84 34z"/>
<path d="M1303 2318 c2 -7 14 -13 27 -13 13 0 25 6 28 13 2 8 -7 12 -28 12
-21 0 -30 -4 -27 -12z"/>
<path d="M505 2232 l-50 -7 -3 -117 c-1 -65 1 -118 6 -118 5 0 51 26 103 57
52 31 143 82 202 114 60 31 105 59 100 62 -14 8 -304 15 -358 9z"/>
<path d="M745 2082 c-275 -175 -281 -180 -304 -233 -39 -90 -36 -265 7 -361
l17 -38 74 122 c124 206 277 430 366 537 72 86 81 101 62 101 -12 0 -112 -58
-222 -128z"/>
<path d="M1418 2191 c-16 -9 -28 -20 -28 -24 0 -15 78 -122 111 -152 l32 -30
-22 32 c-26 39 -51 106 -51 142 0 41 -11 50 -42 32z"/>
<path d="M1025 2143 c-126 -161 -279 -392 -396 -601 -103 -183 -221 -433 -215
-456 8 -32 64 -84 118 -112 70 -35 160 -54 266 -54 l92 0 0 84 c0 350 75 787
186 1084 29 76 33 96 22 103 -22 14 -26 11 -73 -48z"/>
<path d="M1171 2161 c-17 -33 -69 -208 -85 -286 -41 -210 -50 -323 -51 -657 0
-252 3 -330 13 -340 20 -20 241 -17 322 5 176 47 281 136 318 269 10 37 10 37
-34 63 -168 98 -302 284 -354 490 -26 101 -42 278 -34 376 l7 75 -47 11 c-40
9 -48 8 -55 -6z"/>
<path d="M1301 2092 c-1 -90 34 -251 78 -358 91 -220 244 -383 414 -440 47
-16 49 -16 85 9 75 49 152 232 139 329 -7 52 -18 63 -48 47 -16 -9 -60 -14
-124 -14 -122 0 -187 22 -286 95 -117 85 -208 215 -244 348 l-13 47 -1 -63z"/>
<path d="M1350 2135 c0 -10 16 -52 36 -93 28 -57 56 -95 118 -156 85 -86 152
-126 241 -146 53 -12 126 4 178 39 l29 18 -55 7 c-35 5 -72 18 -99 35 -32 21
-60 30 -110 34 -80 7 -137 32 -205 92 -50 44 -103 120 -103 148 0 8 -7 20 -15
27 -12 10 -15 9 -15 -5z"/>
</g>
</svg>
