<svg version="1.0" xmlns="http://www.w3.org/2000/svg" width="400" height="200" viewBox="0 0 4000 2000"><path d="M85.1 37.7c-2.3 2.4-3.3 5.4-6.4 19.8-2.1 9.3-3.9 17-4 17.1-.1 0-5.1 1.7-11.2 3.7-6 2-12.7 4.3-14.7 5.2L45 85v21.5c0 21.5 0 21.5 2.3 21.9 1.2.3 9.6.7 18.7 1 46 1.5 80.6 10.9 114.3 30.9 4.2 2.5 7.7 4.3 7.7 3.9-.1-2.8-3.6-14.7-6.1-20.8-3.1-7.3-3.2-7.5-12.3-13.5-22.7-15.1-50.2-25.4-73.5-27.5-13.4-1.3-9.4-3.8 9-5.6 19.1-1.8 41.9 1.1 59.7 7.8 32.1 12.1 60.1 37.4 75.7 68.3 4.8 9.7 10.1 25.6 12 36.5 3 17.5 1.7 44.5-3.2 61.8-1.8 6.6-1.5 6.5-12.4 4.2-9.5-2.1-16.4-1.3-23.9 2.5-4.9 2.5-5.5 3.2-5.3 5.7 1.9 23.7 1.3 29.7-4.1 38.6-4.4 7.3-9.9 10.9-17.8 11.7l-6.3.6-.6 5.7c-1.8 16.7-16.3 30.3-39.1 36.9-13.2 3.8-33.5 3.7-43.3-.1-1.7-.7-7-1.1-12-1.1-10.3.2-20.4-2-31.4-6.9-3.8-1.6-7.2-3-7.6-3-.3 0-.5 3.5-.3 7.7l.3 7.8 6.5 3.2c3.6 1.8 10.2 4.2 14.6 5.5l8.2 2.3 3.8 16.9c2.7 12.1 4.5 17.7 6 19.5l2.2 2.6 28.3.3c29.8.3 32.9-.1 35.1-4.2.7-1.1 2.8-9.7 4.7-18.9l3.6-16.9 10-3.4c5.5-1.9 10.5-3.2 11-3 .6.2 7 5.6 14.3 12 10 8.8 13.9 11.6 16 11.6 1.9 0 8.7-4.4 23.7-15.5 11.6-8.5 21.8-16.5 22.8-17.6.9-1.2 1.7-3.2 1.7-4.4 0-1.3-3.1-9.2-7-17.6-3.8-8.4-7-15.8-7-16.5 0-.7 2.3-4.4 5.1-8.1 2.8-3.7 5.4-7.5 5.9-8.3.7-1.2 3.1-1.2 19 .3 19.7 1.8 20.9 1.6 23.4-3.1.8-1.5 4.9-13.7 9.1-27.2 6.1-19.1 7.5-25 6.9-26.9-.7-1.9-5-4.9-16.8-11.6l-15.9-9-.2-11.3-.2-11.2 15.5-9.3c8.5-5 16.1-10.1 16.8-11.2 1.2-1.8.2-5.3-7.9-29.5-8-24-9.5-27.7-11.7-28.7-2.1-1-5.8-.8-19 .7-9.1 1.1-17.2 2-18 2-2.4 0-14.3-16.6-13.5-19 .3-1.1 3.5-8.5 7.1-16.6 3.5-8.1 6.4-15.6 6.4-16.8 0-1.3-1-3.2-2.2-4.3-5.2-4.6-43.5-31.2-45.9-31.8-3-.7-3.6-.3-20.7 15.4l-10.3 9.4-10.2-3.2c-5.6-1.8-10.3-3.4-10.6-3.6-.2-.3-2.1-8.2-4.3-17.7-3.2-14.5-4.3-17.7-6.4-19.6-2.5-2.2-2.9-2.2-30-2.2H87.8l-2.7 2.7z"/><path d="M44.9 136.6c-.2 2.2.2 4.8.6 5.3.2.1 6.1.9 13.2 1.7 22 2.4 38.4 5.6 57 11 1.8.5 2.4 0 3.6-2.9.8-1.9 2-3.8 2.6-4.1 2.5-1.6.5-2.6-11.6-5.5-15.7-3.7-31.1-5.8-50.5-6.7-14.1-.7-14.8-.6-14.9 1.2zm146.4 13.7c1.8 5.1 2.1 8.8 2.2 21V186l5 1.6c6.9 2.3 18.2 8.1 22.6 11.5 2 1.6 4.4 4.4 5.3 6.3 2 4.2 2.1 11.6.1 14.2-3.3 4.3-.9 4.6 3.9.4 11.2-9.8 10.9-30.8-.7-48.1-7.2-10.7-21.5-21-36.3-26.3l-4.1-1.4 2 6.1zm-146.6-.4c-.9 3.4.4 7.1 2.7 7.6 1.1.2 7.5 1.4 14.1 2.5 10.7 1.9 41.7 8.9 45.5 10.4 1.2.5 1.5-.5 1.6-5.4v-5.9l-10.5-2.5c-12.8-3-18.3-4-37-6.6-17.4-2.4-15.8-2.4-16.4-.1zm89.8-.5c-11.2 4.9-11.5 18.5-.7 23.7 4.2 2.1 4.5 2.1 8.7.4 7.9-3 11.3-10.9 7.7-17.5-3.3-5.9-10.4-9-15.7-6.6zm13 8.6c0 2.9-.4 3.6-2.3 3.8-4.3.6-6.9-3.7-4-6.6.7-.7 2.4-1.2 3.8-1 2.1.3 2.5.8 2.5 3.8z"/><path d="M160 161.3c0 9-7.2 17.7-16.1 19.6-7.8 1.7-16.8-.7-21-5.5-2.6-3-4.9-8.1-4.9-10.9 0-1.6-.6-2.5-1.5-2.5-1.6 0-1.9 1.5-1.5 7 .6 9 10.6 21.8 16 20.5 1.4-.3 8.4-.8 15.6-1.2 13.6-.6 26 .6 33.4 3.2l4 1.4 1.5-5.2c.8-2.9 1.8-7.6 2.2-10.5l.6-5.2-8.9-4.1c-4.9-2.3-11.3-5.2-14.1-6.5l-5.3-2.3v2.2zm-115.3 5.8c-.7 2.8.2 7.6 1.7 8.8 1.6 1.3 40.6 12.8 51.1 15 12.6 2.7 20.1 3.5 20.9 2.2.4-.5-.8-3-2.6-5.4-1.8-2.4-4-5.8-4.9-7.5-1.6-2.8-2.6-3.2-14.5-6-13.7-3.3-45.5-9.2-49-9.2-1.4 0-2.4.8-2.7 2.1zm644 17.4c-2.8 3.5-2.8 3.5-.5 3.5 2.5-.1 6.3-4.4 5.3-6-1-1.6-1.9-1.2-4.8 2.5zm-643.8 2.1c-1.1 3-.7 15.3.7 18.8.7 1.7 1.5 1.8 10.8 1.2 5.6-.3 17.6-.9 26.9-1.3 16.6-.6 16.8-.6 20.8-3.6l4.2-3.1-10.9-1.8c-9.2-1.5-44.1-10.2-49.6-12.3-1.3-.5-2.1 0-2.9 2.1zm1568.6-.4c-1.4 2.1-1.4 2.3.1 2.6 2 .5 4.9-2.2 4-3.7-1.1-1.7-2.3-1.3-4.1 1.1zm-528 5.7c-5.2 1.3-11.1 4.8-14.3 8.6-13.3 15.1-13.3 40.4 0 55 8.4 9.2 19.3 11.8 28.9 7 6.4-3.3 6.9-4.1 6.9-12.1V243l-4.5 3.2c-3.5 2.5-5.8 3.3-10.3 3.6-7.3.5-11.2-1.3-14.9-6.9-2.2-3.4-2.7-5.5-3.1-12.2-.5-10.7.9-15.8 5.9-20.8 3.6-3.6 4.3-3.9 9.6-3.9 6.1 0 12.8 3.1 15.8 7.3 1.5 2.1 1.5 1.6 1.3-6.8l-.3-9-5-2.6c-5.6-3-11.5-4.1-16-3zm78.2.5c-9 2.5-17.3 11.4-20.7 22.2-7.4 24 6.7 50.4 26.9 50.4 5.2 0 13-4 17.5-9 10.7-11.9 13-30.8 5.7-46.5-3.8-8.1-7.2-11.9-13.4-14.9-6.9-3.3-10.3-3.7-16-2.2zm9.6 15c7.1 2.9 10.7 10.1 10.7 21.7 0 17-13.4 26.7-23.6 16.8-10-9.7-7.9-32.4 3.6-38.1 4.2-2.2 5.1-2.2 9.3-.4zm-983.9-9.5c-1.6 5.8-1.7 5.9-5.8 6.3-2.2.3-5.9 1.3-8.1 2.2-4.7 2-3.7 3.2 3.8 4.2 3 .4 4.7 1.2 4.7 2s-.7 1.4-1.5 1.4-1.5.6-1.5 1.2c-.1 3.3-1.6 3.9-6.3 2.7-4.5-1.1-6.2-3.2-3.4-4.2.6-.2 0-.8-1.6-1.2-3.6-1-7 1.3-10.8 7.3-3.2 5.1-5.9 12.9-5.9 17.2 0 8.6 6.3 19.1 13.9 23 5 2.5 7 2.6 11.4.7 3.1-1.3 3.7-2.1 3.7-4.5 0-1.7.6-3.2 1.5-3.6 1-.3 1.5-1.9 1.5-4.4v-3.9l5.2-.9c4.1-.7 5.5-1.5 6.7-3.6 1.4-2.4 1.3-3.3-1.5-11.5-1.7-4.8-3.9-11-5-13.6-2.2-5.5-1.4-6.7 4.4-6.7 2.6 0 3.6-.7 5.2-3.3 1.6-2.6 2.8-8.7 1.8-8.7-.2 0-2.7-.9-5.5-2l-5.3-2-1.6 5.9zm1557.9-5c-11.9 3-20.6 13.8-23.4 29.3-3.1 16.8 6.1 36.6 19.6 42.2 5.9 2.5 13.3 2 19.6-1.2l5.4-2.7.3-7.9.3-7.9-2.8 1.8c-5.7 3.8-7.9 4.5-14 4.5-6 0-6.5-.2-10.2-3.9-4.7-4.7-6.6-11.3-5.9-21.1.6-8 4.2-15.1 8.8-17.5 3.3-1.7 10.6-2 14.3-.6 1.4.5 4.1 2.4 6.1 4.1l3.6 3.2v-17.1l-5.2-2.5c-6-2.9-11.9-3.8-16.5-2.7zm52.2 0c-16.4 4.2-27.1 23.6-23.7 43.2 3.9 22.7 21.1 35.3 37.7 27.5 6.2-2.8 10.9-8 14.9-16.6 2.9-6.1 3.1-7.2 3.1-17.5 0-9.1-.4-12-2.3-16.7-5.4-13.3-19.2-22.6-29.7-19.9zm11.7 17.2c3.6 2.6 6.9 9.8 7.5 16.7 1.2 13.2-5.7 24.2-15.2 24.2-8.6 0-15-9.2-14.9-21.5 0-16.9 11.8-27 22.6-19.4zM132 195.6c-7.9 1.7-16.6 4.8-20.5 7.4l-3 2h7.5c16.2 0 27.4 3.7 30.2 10 1.6 3.7 2.4 3.8 4.2.2 3.3-6.4 13.5-13.8 22.5-16.2 2.3-.6 4.1-1.3 3.8-1.6-.2-.2-3.9-1.1-8.1-1.9-9.6-1.8-27.9-1.8-36.6.1zm821 32.9V263h11v-18.5c0-14.6.3-18.5 1.3-18.5.7 0 8.5 8.3 17.3 18.5 8.7 10.2 16.5 18.5 17.2 18.5.9 0 1.2-7.6 1.2-34.5V194h-12v18.5c0 14.2-.3 18.5-1.2 18.4-.7 0-8.4-8.3-17.1-18.5-8.8-10.1-16.3-18.4-16.8-18.4s-.9 14.5-.9 34.5zm80.1-32.3c-.5 1.3-6.4 16-13.1 32.8-6.8 16.8-12.5 31.3-12.8 32.3-.4 1.6.2 1.8 5.4 1.5l5.9-.3 1.6-4.5 1.7-4.5 12.5-.3 12.5-.3 1.7 5.1 1.7 5h5.9c3.2 0 5.9-.3 5.9-.7 0-1.8-26.5-68.3-27.2-68.3-.5 0-1.2 1-1.7 2.2zm5.2 34.3l3.6 10.5h-7.5c-4.1 0-7.4-.3-7.4-.7 0-1.8 6.5-20.3 7.1-20.3.4 0 2.3 4.7 4.2 10.5zm80.7-2V263h13v-69h-13v34.5zm85.2-.3l.3 34.3 5.8.3 5.7.3v-18.6c0-15.6.2-18.6 1.4-18.3.8.2 8.5 8.4 17 18.3 8.6 9.9 16.2 18 16.9 18 .9 0 1.3-8 1.5-34.3l.2-34.2h-12v18.5c0 14.1-.3 18.5-1.2 18.5-.7 0-8.4-8.3-17.2-18.5-8.7-10.2-16.5-18.5-17.2-18.5-1.2 0-1.4 5.7-1.2 34.2zm80.3-31c-.7 1.8-6.9 17.4-13.8 34.6l-12.5 31.3 6-.3 6-.3 1.7-4.5 1.7-4.5 12.5-.3 12.5-.3 1.5 4.8 1.5 4.8 6.3.3c5.8.3 6.3.1 5.7-1.5-6.6-17.9-26.3-67.3-26.9-67.3-.4 0-1.4 1.5-2.2 3.2zm5.5 33.4c1.8 5.2 3 9.7 2.7 10-.2.3-3.6.4-7.5.2l-7-.3 3.5-9.8c2-5.3 3.9-9.7 4.3-9.7.5 0 2.3 4.3 4 9.6zm30-2.1V263h35v-14h-22v-55h-13v34.5zm77 .1v34.6l11.8-.4c9.9-.3 12.6-.8 17.3-3 7.1-3.2 12.4-8.6 15.8-15.7 2.3-4.9 2.6-6.9 2.6-16.1 0-9.4-.3-11.1-2.8-16.1-3.5-7.2-9.8-13.1-17.1-15.8-4.5-1.7-7.9-2.1-16.6-2.1h-11v34.6zm23.7-19.5c7 2.6 11.2 10 11.3 19.5 0 11.6-6.9 19.3-17.2 19.4h-4.8v-40h3.9c2.2 0 5.2.5 6.8 1.1zm33.3 19.4V263h34v-14h-22v-15h14v-13h-14v-14h22v-13h-34v34.5zm-976.5-31.1c-16.9 7.8-23.8 35.2-13.8 54.9 7.7 15.4 21.9 20.8 34.6 13.4l4.7-2.8v-16.2l-2.2 2c-6.2 5.6-17.1 7.2-22.2 3.2-8.6-6.7-10.2-27.1-3-36.7 6.2-8 15.8-8 24.2 0l3.2 3.2v-8.5c0-8.4 0-8.4-3.3-10.6-7.3-5-14.4-5.6-22.2-1.9zm107.7-.3c-5.8 2.9-12.6 10.8-15.3 17.7-3.3 8.5-3.8 22-1.1 30.9 6.8 22.3 26.3 30.2 40.5 16.5 18.1-17.4 14.1-55.1-6.8-64.8-6.2-2.9-11.7-3-17.3-.3zm14.6 14.9c10.2 6.2 11.2 30.5 1.6 39-13.2 11.5-27.9-11.4-19.8-30.8 3.8-9.2 11.1-12.5 18.2-8.2zm81.5-14.9c-23.8 11.7-25 55.7-1.9 69 12.3 7 26.2.8 33.3-14.8 9.1-19.9 2.1-46.3-14.2-53.9-6.2-2.9-11.7-3-17.2-.3zm14.4 14.9c4.8 2.9 7.5 9.1 8.1 18.3.9 15.4-6.8 25.9-17.2 23.3-7-1.8-12.3-13.1-11.3-24.3 1.4-14.8 11.1-23 20.4-17.3zm48.3-15.5c-12.4 5.6-20 19-20 35.4 0 14.3 5.7 27 14.7 33 8 5.3 17.1 5.5 27 .5l5.8-2.9.3-16.8.2-16.7h-22v13h10v5.9c0 6.6-.5 7.1-7.1 7.1-10.4 0-16.9-8.8-16.9-22.9 0-9 1.5-13.6 5.9-18.4 3.2-3.4 4.5-4 8.9-4.5 6.6-.6 9.4.2 13.6 3.8 4 3.6 4.6 2.9 4.6-6v-5.9l-4.7-2.8c-5.8-3.4-14.9-4.2-20.3-1.8zm79.3 1c-20.2 10.2-24.5 44.9-7.9 63.3 7.9 8.8 19.1 10.6 28.9 4.9l4.7-2.8v-16l-4 3.3c-3.5 2.7-5.1 3.3-10.5 3.6-7.6.5-11.2-1.5-14.7-8.1-3.2-6.1-3.2-21.3-.1-27.4 5.6-10.6 15.5-12.2 24.7-4.2l4.6 4.1v-17.1l-4.7-2.8c-6.8-4-14.2-4.3-21-.8zm49.2-.1c-19 8.8-24.5 42-10.1 60.9 5.3 6.9 10.6 10 17.9 10.5 5.6.3 6.7 0 11.6-3 10.9-6.6 16.7-19.9 15.9-36.1-.7-12.6-3.4-19.5-10.7-26.7-8.3-8.3-15.5-9.9-24.6-5.6zm17.2 17c6.8 7.4 8 21.8 2.7 31.5-3.3 6.1-7.2 8.5-12.8 7.8-4.9-.7-9.6-5.4-11.4-11.5-2.1-6.8-1.5-17 1.3-22.9 4.6-9.9 13.6-12.1 20.2-4.9zm645.3-18.8c0 .3-2.5 15.3-5.5 33.4-3 18.1-5.5 33.4-5.5 33.9 0 .7 2.3 1.1 5.4 1.1h5.3l.7-4.8c2.3-17.5 4-26.2 5-26.2.7 0 4.3 6.9 8.2 15.2 4 8.7 7.6 15.3 8.3 15.3.8 0 4.2-6.4 8-15.2 3.6-8.4 7.1-15.3 7.7-15.3.6 0 1.4 2.1 1.8 4.7.3 2.7 1.3 9.6 2.2 15.5l1.7 10.8h5.9c5.2 0 5.9-.2 5.5-1.8-.3-.9-2.9-16.4-5.8-34.5-2.9-18-5.6-32.7-6-32.7-.4 0-4.9 9.5-10 21-6.4 14.4-9.8 21-10.8 20.8-.7-.2-5.7-9.6-11-21-8.2-17.7-11.1-23-11.1-20.2zm62 33.9V264h35.1l-.3-6.8-.3-6.7-11.2-.3-11.3-.3V235h14v-13h-14v-14h22v-13h-34v34.5zm53-18.5c4.4 8.8 8 16.5 8 17.1 0 .7-4.3 8.7-9.5 18-5.2 9.2-9.5 17-9.5 17.3 0 .3 2.8.6 6.3.6l6.2-.1 6.1-11.2c3.3-6.1 6.7-11.3 7.5-11.5.9-.1 3.8 4 7.9 11.3l6.5 11.5h7.3c8.6 0 9.1 2.5-4.4-20.2-5.2-8.6-9.4-16.3-9.4-17.1 0-1.3 2.9-6.7 14.2-26.5l2.9-5.2h-12.7l-5.3 9.5c-2.9 5.2-5.8 9.5-6.5 9.5-.6 0-3.6-4.3-6.6-9.5l-5.5-9.5H1642l8 16zm53 18.5V264h13v-69h-13v34.5zM363 204v7h17v56h12v-56h17v-14h-46v7zm55.9-6.6c-.2.2-.3 16-.1 35l.3 34.6H451v-14h-21v-15h12v-13h-12v-14h21v-14h-15.8c-8.7 0-16.1.2-16.3.4zM513 232v35h11v-18.5c0-14.2.3-18.5 1.3-18.5.6.1 8 8.4 16.2 18.5 8.3 10.2 15.6 18.5 16.3 18.5.9 0 1.2-7.7 1.2-35v-35h-11v19c0 14.8-.3 19-1.3 19-.7 0-8.2-8.5-16.7-19-8.5-10.4-15.8-19-16.2-19-.5 0-.8 15.7-.8 35zm116 0v35h33v-14h-21v-56h-12v35zm155 0v35h12v-70h-12v35zM67 211.2c-6.9.5-14.5 1.2-17 1.6-4.1.7-4.6 1-5.4 4.4-.6 2.6-.6 4.6.2 6.3 1.1 2.5 1.2 2.5 13.9 2.5 18.1 0 47.9 2.9 58.8 5.6 2.6.6 2.6.5 1.5-1.6-1.9-3.6-.8-13.5 1.8-16.3l2.3-2.4-9.8-.6c-12.4-.9-30.2-.7-46.3.5z"/><path d="M126.9 216.9c-5.1 5.1-3.2 12.5 3.8 15.2 5.1 1.9 11.3-3.3 11.3-9.7 0-3.7-5.1-8.4-9-8.4-2.2 0-4.1.9-6.1 2.9zm9.5 2.7c2.4 2.4 2 6.1-.9 8-2.3 1.5-2.7 1.5-5 0-1.7-1.1-2.5-2.6-2.5-4.6 0-4.5 5.2-6.6 8.4-3.4z"/><path d="M130.3 223.2c.2.7 1.4 1.3 2.7 1.3 1.3 0 2.5-.6 2.8-1.3.2-.8-.7-1.2-2.8-1.2-2.1 0-3 .4-2.7 1.2zm-79.8 8.6l-5 .7-.3 11.7c-.1 6.5.1 11.8.6 11.8s5.1-2.6 10.3-5.7c5.2-3.1 14.3-8.2 20.2-11.4 6-3.1 10.5-5.9 10-6.2-1.4-.8-30.4-1.5-35.8-.9zm24 15c-27.5 17.5-28.1 18-30.4 23.3-3.9 9-3.6 26.5.7 36.1l1.7 3.8 7.4-12.2c12.4-20.6 27.7-43 36.6-53.7 7.2-8.6 8.1-10.1 6.2-10.1-1.2 0-11.2 5.8-22.2 12.8zm67.3-10.9c-1.6.9-2.8 2-2.8 2.4 0 1.5 7.8 12.2 11.1 15.2l3.2 3-2.2-3.2c-2.6-3.9-5.1-10.6-5.1-14.2 0-4.1-1.1-5-4.2-3.2zm-39.3 4.8c-12.6 16.1-27.9 39.2-39.6 60.1-10.3 18.3-22.1 43.3-21.5 45.6.8 3.2 6.4 8.4 11.8 11.2 7 3.5 16 5.4 26.6 5.4H89v-8.4c0-35 7.5-78.7 18.6-108.4 2.9-7.6 3.3-9.6 2.2-10.3-2.2-1.4-2.6-1.1-7.3 4.8zm14.6-1.8c-1.7 3.3-6.9 20.8-8.5 28.6-4.1 21-5 32.3-5.1 65.7 0 25.2.3 33 1.3 34 2 2 24.1 1.7 32.2-.5 17.6-4.7 28.1-13.6 31.8-26.9 1-3.7 1-3.7-3.4-6.3-16.8-9.8-30.2-28.4-35.4-49-2.6-10.1-4.2-27.8-3.4-37.6l.7-7.5-4.7-1.1c-4-.9-4.8-.8-5.5.6z"/><path d="M130.1 245.8c-.1 9 3.4 25.1 7.8 35.8 9.1 22 24.4 38.3 41.4 44 4.7 1.6 4.9 1.6 8.5-.9 7.5-4.9 15.2-23.2 13.9-32.9-.7-5.2-1.8-6.3-4.8-4.7-1.6.9-6 1.4-12.4 1.4-12.2 0-18.7-2.2-28.6-9.5-11.7-8.5-20.8-21.5-24.4-34.8l-1.3-4.7-.1 6.3z"/><path d="M135 241.5c0 1 1.6 5.2 3.6 9.3 2.8 5.7 5.6 9.5 11.8 15.6 8.5 8.6 15.2 12.6 24.1 14.6 5.3 1.2 12.6-.4 17.8-3.9l2.9-1.8-5.5-.7c-3.5-.5-7.2-1.8-9.9-3.5-3.2-2.1-6-3-11-3.4-8-.7-13.7-3.2-20.5-9.2-5-4.4-10.3-12-10.3-14.8 0-.8-.7-2-1.5-2.7-1.2-1-1.5-.9-1.5.5z"/></svg>